<svg xmlns="http://www.w3.org/2000/svg" viewBox="0 0 1200 324.52"><title>github-logo</title><g id="Layer_2" data-name="Layer 2"><g id="Layer_1-2" data-name="Layer 1"><path d="M235.83,143.61V297.38c0,.88-.15,2.81-1.53,3.57,0,0-33.46,23.57-88.63,23.57C79.06,324.52,0,304,0,166.32S69.05,0,136.37,0c58.43,0,81.56,12.94,85.36,15.65a4.39,4.39,0,0,1,1.8,3.68L212.28,67c0,2.6-2.71,5.52-5.65,4.63-9.34-2.89-24-8.89-58.07-8.89-39.34,0-81.25,11.65-81.25,100.17s40.25,99,69.06,99c24.42,0,33.25-3,33.25-3V197.63H130.29a4.72,4.72,0,0,1-4.71-4.72v-49.3a4.71,4.71,0,0,1,4.71-4.71H231.13A4.71,4.71,0,0,1,235.83,143.61ZM750.8,16.5a4.7,4.7,0,0,0-4.68-4.74H689.35a4.72,4.72,0,0,0-4.7,4.74s0,109.73,0,109.73h-88.5V16.5a4.7,4.7,0,0,0-4.68-4.74H534.7A4.72,4.72,0,0,0,530,16.5V313.6a4.73,4.73,0,0,0,4.69,4.75h56.78a4.72,4.72,0,0,0,4.68-4.75V186.52h88.5l-.15,127.08a4.73,4.73,0,0,0,4.7,4.75h56.91a4.72,4.72,0,0,0,4.69-4.75Zm-412.54,39a36.61,36.61,0,1,0-36.61,37A36.77,36.77,0,0,0,338.27,55.48Zm-4.06,195.45V113.78a4.72,4.72,0,0,0-4.7-4.73h-56.6c-2.6,0-4.92,2.68-4.92,5.28V310.82c0,5.77,3.6,7.49,8.25,7.49h51c5.6,0,7-2.75,7-7.58ZM966.59,109.5H910.24a4.72,4.72,0,0,0-4.69,4.75V259.93a63.66,63.66,0,0,1-34.63,10.47c-20.31,0-25.71-9.22-25.71-29.11v-127a4.72,4.72,0,0,0-4.69-4.75H783.35a4.73,4.73,0,0,0-4.69,4.75V250.91c0,59.09,32.93,73.54,78.23,73.54,37.16,0,67.13-20.53,67.13-20.53s1.43,10.82,2.07,12.1a5,5,0,0,0,4.15,2.57l36.38-.16a4.73,4.73,0,0,0,4.69-4.74l0-199.44A4.73,4.73,0,0,0,966.59,109.5ZM1200,206.37c0,91.58-29.67,117.83-81.42,117.83-44.08,0-67.36-22.06-67.36-22.06s-1.42,12.1-2.4,13.7a4.71,4.71,0,0,1-4.12,2.52h-39.5a4.73,4.73,0,0,1-4.7-4.75V16.5a4.71,4.71,0,0,1,4.69-4.74h56.94a4.71,4.71,0,0,1,4.69,4.74V117.1s21.77-14.28,53.77-14.28S1200,114.79,1200,206.37Zm-65.48,3.56c0-48.4-19.55-54.53-39.84-52.71-16,1.43-29.12,9.45-29.12,9.45v94.09a67.56,67.56,0,0,0,32.8,9.46C1125.7,271,1134.52,261,1134.52,209.94ZM497.39,109H454.8s-.06-56.25-.06-56.27c0-2.13-1.1-3.19-3.56-3.19h-58c-2.26,0-3.47,1-3.47,3.16v58.14s-29.09,7-31.05,7.59a4.72,4.72,0,0,0-3.4,4.53v36.54a4.72,4.72,0,0,0,4.69,4.75h29.76v87.9c0,65.29,45.8,71.7,76.7,71.7,14.12,0,31-4.53,33.8-5.56a4.39,4.39,0,0,0,2.67-4.26l0-40.19a4.79,4.79,0,0,0-4.71-4.74c-2.48,0-8.83,1-15.37,1-20.92,0-28-9.73-28-22.32s0-83.53,0-83.53h42.59a4.72,4.72,0,0,0,4.7-4.75V113.76A4.71,4.71,0,0,0,497.39,109Z"/></g></g></svg>