<svg xmlns="http://www.w3.org/2000/svg" viewBox="0 0 1200 743.51"><defs><style>.cls-1{fill:#010002;}</style></defs><title>scissors-cutting</title><g id="Layer_2" data-name="Layer 2"><g id="Layer_1-2" data-name="Layer 1"><path class="cls-1" d="M1199.11,623.65,705,588.94,809.33,743.51h-105c-60.38-73.29-112.11-141.3-128-162-.46-.6-.87-1.17-1.32-1.77-131.09-11.63-125.86-35.9-197.09-9.12-45.47,17.15-98.24,49.52-130.2,62.63-33.08,19.7-76.11,27.44-120.18,18.26-44.85-9.4-83.66-34.85-106.59-69.79C2.51,553.7-4,521.37,2.38,490.86c14.86-71,94.22-108.93,179-97,54.24,7.64,168.9,88.31,218.23,101.54,33.06,9,85.58,1.06,131.17-7.06-15.77-43.56-35.16-92.81-59.33-116.95C435.35,335.2,308,276.15,274.34,233,221.6,165.52,214.85,77.92,268.9,29.55,292.13,8.77,323.4-1.69,356.85.22,398.51,2.51,440,23.47,470.57,57.69c29.95,33.55,44.72,74.66,44.26,113.25,4.58,34.21,2.87,96,10.87,144C538.11,390,556.52,373.31,632.1,481c.72.09,1.41.16,2.13.25,43.79,5.85,256.25,32.69,395.15,68.58C1187.56,590.73,1204.75,610.88,1199.11,623.65ZM59.68,556.46c16.18,24.89,44.42,43,77.42,49.9,58.95,12.21,114.76-15.29,124.4-61.38S230.91,451.34,172,439c-58.93-12.14-114.72,15.31-124.35,61.4-4,18.69.2,38.08,12,56.06ZM308.61,202.24c40.15,44.88,101.4,55.91,136.48,24.45s31.1-93.42-9-138.28C413.63,63.31,383.82,48,354.14,46.24,332.66,45,313.79,51.1,299.56,63.94,264.42,95.3,268.51,157.38,308.61,202.24ZM601.45,545.46a13.25,13.25,0,1,0-4.85-18.11A13.25,13.25,0,0,0,601.45,545.46Z"/></g></g></svg>