<svg xmlns="http://www.w3.org/2000/svg" viewBox="0 0 1200 855.52"><title>wifi-symbol</title><g id="Layer_2" data-name="Layer 2"><g id="Layer_1-2" data-name="Layer 1"><path d="M722.22,733.3A122.22,122.22,0,1,1,600,611.08,122.22,122.22,0,0,1,722.22,733.3Zm453.92-379.43a81.49,81.49,0,0,0,0-115.23C1022.25,84.75,817.64,0,600,0S177.76,84.75,23.86,238.64A81.48,81.48,0,0,0,139.09,353.87C262.21,230.76,425.89,163,600,163s337.8,67.8,460.91,190.92a81.49,81.49,0,0,0,115.23,0ZM346.5,561.28a358.5,358.5,0,0,1,507,0A81.48,81.48,0,1,0,968.73,446C870.24,347.56,739.29,293.32,600,293.32S329.76,347.56,231.27,446.06A81.48,81.48,0,1,0,346.5,561.28Z"/></g></g></svg>